<svg width="79mm" height="46mm" version="1.1" viewBox="0 0 79 46" xmlns="http://www.w3.org/2000/svg">
 <g transform="translate(-69 -148)">
  <path d="m77 193c-1.6-.63-3.4-3.2-4.1-5.6-.26-.98-.41-2.7-.41-4.6 0-2.9.039-3.1.89-4.9.49-1 1.2-2.2 1.6-2.7.45-.53.64-.95.48-1.1-.15-.096-.35-.61-.45-1.1-.099-.54-.55-1.8-1-2.8-1.4-3-2.6-6.2-3-7.8-.44-1.7-1.2-5.7-1.2-6.4-.0084-.8.91-1.5 1.9-1.4.84.071.88.13.82.98-.093 1.2.54 4.1 1.6 7.4.94 2.9 1.1 2.9 1.4-.49.24-2.7 1.2-6.5 1.7-6.8.22-.11.61-.27.86-.35.25-.079.46-.37.46-.64s.3-.82.66-1.2c.57-.62.79-.69 1.7-.54 1.3.24 1.5.48 1.2 1.3-.26.57-.18 1.2.47 3.9.43 1.8.84 3.7.91 4.3.12.91 1.2 3.9 1.2 3.5.05-.79 1.9-14 2-14 .15-.42 1.2-.43 2.1-.014.68.31.69.35.55 2.3-.081 1.1-.23 3.4-.33 5.1-.099 1.7-.28 3.2-.4 3.3-.12.076-.22.82-.22 1.7 0 .83-.12 2.5-.28 3.7-.2 1.6-.19 2.3.018 2.6.45.54-.14 1.4-.95 1.4-.44 0-.73-.2-.88-.58-.15-.42-.44-.59-.98-.6-.61-.008-.79-.14-.86-.66-.051-.36-.42-1.1-.82-1.7-1-1.5-2-3.4-2.5-5.2-.26-.8-.55-1.6-.66-1.7-.17-.18-.44 1.1-.68 3.1-.17 1.5-.69 3.9-.9 4.3-.13.25-.35 1.2-.47 2.2-.21 1.6-.19 1.8.23 1.8.25 0 .67.08.92.18.32.12.4.08.26-.14-.43-.7 1.8.13 2.5.93.57.64 1.2 3.3 1.1 4.3-.15 1.1-.85 1.1-.85.034 0-1.4-.14-1.5-1.8-1.3-1.8.25-3 1.2-4.2 3.1-1 1.7-1.4 3.3-1.4 6.3 0 2.9.4 3.6 2.3 3.9 1.2.16 1.4.095 3.2-.97 1.3-.78 2-1.4 2.1-1.9l.27-.75-1.1.17c-.62.096-1.3.24-1.6.32-.34.098-.43.042-.3-.18.14-.23.041-.27-.35-.15-.64.2-1.7-.29-1.5-.67.089-.14.016-.44-.16-.65-.18-.22-.28-.44-.22-.5.23-.23 6.2-1.7 6.9-1.7.74-.00053.79.091 1.1 2 .089.57-.00042.79-.36.89-.38.099-.45.31-.34.99.25 1.5-1.4 4.4-3 5.2l-.53.28 1.1-1.2-.84.58c-1.2.8-3 1.6-3.7 1.6-.29-.006-.83-.13-1.2-.27zm12-2.1c-.93-.37-1.3-2.7-1.9-12-.21-2.9-.36-3.9-.68-4.1-.32-.24-.35-.43-.13-.84.16-.29.29-.78.29-1.1 0-.44.16-.54.86-.53.47.01 1.1.11 1.4.22.29.11 1.6-.058 3.2-.4 1.5-.33 2.9-.54 3.3-.45.9.23 1 1.1.27 1.8l-.65.6.64.57c1.1.98.63 1.2-3.4 1.5l-2.1.17.004 1.2c.0022.68.092 1.4.2 1.5.13.19 1.1.21 3.2.036 1.6-.13 3.1-.18 3.1-.09.086.086.17.9.18 1.8l.029 1.7-1.3.3c-.73.17-2.3.51-3.4.77l-2.1.47.16 2.7h2.4c1.3 0 3.1-.089 3.9-.2l1.5-.2.26 1c.23.93.2 1.1-.33 1.6-.8.7-2 1.1-5 1.5-2.8.43-3 .43-3.8.12zm20-1.4c-.99-1.9-4.4-6.8-4.5-6.5-.049.14.11 1.4.36 2.8.45 2.5.45 2.5-.11 3-.31.29-.56.63-.56.75 0 .42-2.4.63-2.8.24-.63-.7-1.5-3.6-1.9-6.2-1-7.1-.96-10 .3-11 .36-.32.66-.69.66-.81 0-.37 1.2-1.4 1.6-1.4.22 0 .57.34.78.76s1 2.1 1.9 3.6c.82 1.6 1.9 4 2.5 5.5.55 1.4 1 2.5 1.1 2.5.03-.036-.043-1.7-.16-3.6-.38-6.3-.33-7.9.31-8.7.68-.87 1.7-1 2.1-.28.15.29.32 1.1.37 1.8.051.68.18 1.5.28 1.7.11.27.13 2.1.063 4.1-.071 2 .004 5.3.17 7.4.24 3.1.23 3.8-.039 3.9-.19.071-.34.39-.34.71 0 .65-.46 1.2-.97 1.2-.19 0-.67-.63-1.1-1.4zm7.7-1.6c-.14-.18-.41-.99-.6-1.8-.19-.8-.68-2.5-1.1-3.7-.68-2-.78-2.7-.9-6.4-.17-5.4-.24-5.8-.98-5.7-1 .11-1.7-1.7-2.3-6.7-.47-3.7-.52-5.1-.34-9.1.17-3.9.28-4.7.57-4.7.2.043.72-.045 1.2-.2.98-.34 2.1-.11 1.9.41-.17.44.25.47 1.5.1 1.5-.46 4.5-.76 5.2-.52.73.28 2.5 2.7 2.5 3.4 0 .9-1.3 3.9-2.1 4.7-.4.43-1.1.98-1.5 1.2l-.74.46 1.9 1.4c2.8 2 5.5 6.5 5.3 8.5-.11.79-.75 1-.75.31 0-1.2-.68-1.9-3.8-3.9-1.7-1.1-3.7-2.5-4.3-3.2-.64-.64-1.2-1.2-1.3-1.2s.004 1 .13 2.3c.13 1.3.18 3 .12 3.8-.087 1.1.055 1.9.65 3.5.48 1.3.86 3.1 1 4.8.15 1.5.58 4.3.94 6.2.68 3.6.67 4.3-.028 4.3-.27 0-.41.26-.41.78 0 1.1-1.2 1.7-1.8 1zm1.2-31c1.4-.96 3.1-3.2 3-4-.065-.46-.3-.56-1.4-.64-1.5-.1-4.9.42-4.9.74 0 .24.78 3.9.94 4.4.17.56 1.1.37 2.4-.53zm15 31c-.31-.44-.74-.79-.95-.79-.21 0-.62-.39-.91-.86-.47-.77-.52-.8-.53-.26-.001.76-1.2 1.5-3.1 1.9-1.8.39-2.5.2-3.6-1-1.3-1.3-1.7-2.2-2.7-6.3-.48-1.9-1.1-4.4-1.5-5.5-.55-1.8-.58-2.2-.28-3.5.18-.8.5-1.6.71-1.8.21-.17.38-.48.38-.67 0-.81 1.9-.91 2.7-.14.098.089.3 1.7.46 3.5.36 4.3 1.4 9.5 2.2 11 .87 1.6 1.6 1.6 2.4.12.79-1.4.83-1.8.27-3.4-.53-1.5-.87-4-1.1-8.4-.17-2.7-.35-3.8-.72-4.4-.41-.71-.43-.91-.14-1.1.44-.28.31-2.3-.67-11-.66-5.7-.67-5.9-.2-6.3 1.2-.87 3.7-1.1 5.8-.58 3.7.94 6.1 7.4 4.7 13-.61 2.5-1.3 3.5-3.6 5-1.5.98-1.9 1.3-1.7 1.7.11.24.28 1.5.38 2.7.1 1.3.86 5 1.7 8.5 1 4.2 1.4 6.2 1.2 6.3-.38.13.19 1.3.99 2 .67.61.34.93-.95.94-.64.003-.98-.19-1.4-.79zm-.53-25c.89-1.1 1.5-2.8 2-5.3.4-2.2.4-2.4-.012-3-.75-1.2-1.5-1.9-2.5-2.4-1-.53-2.9-.68-2.9-.24 0 .33 1.6 11 1.7 12 .13.65.2.69.64.38.27-.19.75-.66 1-1zm10 24c-.29-.47-.57-.98-.62-1.1-.055-.15-.6.21-1.2.79l-1.1 1.1-1.1-1.1c-1.5-1.6-1.4-2 1.2-3.4 1.3-.68 2.7-1.8 3.6-2.6 1.3-1.3 1.4-1.5.93-1.7-.29-.11-1.5-.21-2.7-.22-2.4-.02-3.4-.34-4.8-1.5-.96-.81-2.4-3.2-2.4-3.9-.004-.78 1.9-2.6 4.4-4.2 2.5-1.7 3.1-1.8 4.5-.83.79.52 1.2 1.3 1.8 3.2.45 1.5.37 1.7-.51.84-1.7-1.6-4.7-.52-5.3 1.9-.28 1.2.39 1.3 3.8.86 2.7-.36 3-.35 3.6.034 1.4.9 2 3.7 1.3 6.1-.93 3.2-3.3 6.7-4.5 6.7-.22 0-.63-.39-.92-.86zm-49-14c-.33-.13-.7-.51-.82-.84-.32-.87-.8-5-1.1-9.7-.29-4.4-.43-5.3-.84-5.3-.15 0-.19-.25-.087-.6.099-.33.2-.83.23-1.1.048-.48.22-.52 1.8-.46 1 .042 2.7-.15 4.2-.5 2.3-.53 2.5-.54 3.1-.13.85.55.83.83-.064 1.6-.4.35-.57.64-.38.65.19.005.28.11.2.25-.081.13.032.31.25.39.22.083.4.32.4.53 0 .42-.7.56-4.1.84l-2.1.17.18 1.3c.098.74.22 1.4.28 1.5.054.088.97.072 2-.035 1.1-.11 2.5-.2 3.2-.21l1.2-.016.18 1.5c.13 1.1.082 1.6-.18 1.9-.2.2-1.5.58-2.9.86-3.3.66-4 .96-3.8 1.5.088.23.16.82.16 1.3v.9l1.5-.002c.84-.001 2.6-.12 3.9-.27 1.3-.15 2.4-.22 2.5-.15.066.066.16.53.21 1 .15 1.6-1.1 2.3-5.4 3-3.1.45-2.9.45-3.7.13zm12-1.4c-.22-.58-1.7-5.5-2.2-7.3-.14-.51-.31-2.8-.38-5.2-.073-2.3-.25-4.9-.4-5.8-.42-2.5-.43-2.5.79-2.2.92.23 1.1.45 1.7 1.6.99 2.1 1.7 4.7 1.9 6.8.16 1.8 1.3 8.7 1.6 9.8.093.32-.074.54-.54.72-.52.2-.68.44-.68 1 0 1.2-1.4 1.6-1.8.5z"/>
 </g>
</svg>
